HIERARCHY
ROOT Hips
{
	OFFSET -183.429703 89.960052 22.660780
	CHANNELS 6 Xposition Yposition Zposition Zrotation Yrotation Xrotation 
	JOINT LeftUpLeg
	{
		OFFSET 0.103454 1.857828 10.548502
		CHANNELS 3 Zrotation Yrotation Xrotation
		JOINT LeftLeg
		{
			OFFSET 43.500000 -0.000023 -0.000008
			CHANNELS 3 Zrotation Yrotation Xrotation
			JOINT LeftFoot
			{
				OFFSET 42.372192 0.000008 0.000008
				CHANNELS 3 Zrotation Yrotation Xrotation
				JOINT LeftToe
				{
					OFFSET 17.299997 -0.000001 0.000000
					CHANNELS 3 Zrotation Yrotation Xrotation
					End Site
					{
						OFFSET 0.000000 0.000000 0.000000
					}
				}
			}
		}
	}
	JOINT RightUpLeg
	{
		OFFSET 0.103459 1.857828 -10.548505
		CHANNELS 3 Zrotation Yrotation Xrotation
		JOINT RightLeg
		{
			OFFSET 43.500046 -0.000027 0.000015
			CHANNELS 3 Zrotation Yrotation Xrotation
			JOINT RightFoot
			{
				OFFSET 42.372261 -0.000008 0.000019
				CHANNELS 3 Zrotation Yrotation Xrotation
				JOINT RightToe
				{
					OFFSET 17.299992 -0.000006 -0.000002
					CHANNELS 3 Zrotation Yrotation Xrotation
					End Site
					{
						OFFSET 0.000000 0.000000 0.000000
					}
				}
			}
		}
	}
	JOINT Spine
	{
		OFFSET 6.901967 -2.603729 0.000006
		CHANNELS 3 Zrotation Yrotation Xrotation
		JOINT Spine1
		{
			OFFSET 12.588098 -0.000001 -0.000005
			CHANNELS 3 Zrotation Yrotation Xrotation
			JOINT Spine2
			{
				OFFSET 12.343207 0.000001 -0.000003
				CHANNELS 3 Zrotation Yrotation Xrotation
				JOINT Neck
				{
					OFFSET 25.832897 -0.000006 -0.000001
					CHANNELS 3 Zrotation Yrotation Xrotation
					JOINT Head
					{
						OFFSET 11.766602 0.000010 0.000005
						CHANNELS 3 Zrotation Yrotation Xrotation
						End Site
						{
							OFFSET 0.000000 0.000000 0.000000
						}
					}
				}
				JOINT LeftShoulder
				{
					OFFSET 19.745901 -1.480368 6.000114
					CHANNELS 3 Zrotation Yrotation Xrotation
					JOINT LeftArm
					{
						OFFSET 11.284125 -0.000009 -0.000026
						CHANNELS 3 Zrotation Yrotation Xrotation
						JOINT LeftForeArm
						{
							OFFSET 33.000046 0.000005 0.000037
							CHANNELS 3 Zrotation Yrotation Xrotation
							JOINT LeftHand
							{
								OFFSET 25.200003 0.000016 -0.000001
								CHANNELS 3 Zrotation Yrotation Xrotation
								End Site
								{
									OFFSET 0.000000 0.000000 0.000000
								}
							}
						}
					}
				}
				JOINT RightShoulder
				{
					OFFSET 19.746088 -1.480377 -6.000074
					CHANNELS 3 Zrotation Yrotation Xrotation
					JOINT RightArm
					{
						OFFSET 11.284132 -0.000015 -0.000021
						CHANNELS 3 Zrotation Yrotation Xrotation
						JOINT RightForeArm
						{
							OFFSET 33.000107 0.000015 0.000018
							CHANNELS 3 Zrotation Yrotation Xrotation
							JOINT RightHand
							{
								OFFSET 25.199774 0.000138 0.000420
								CHANNELS 3 Zrotation Yrotation Xrotation
								End Site
								{
									OFFSET 0.000000 0.000000 0.000000
								}
							}
						}
					}
				}
			}
		}
	}
}
MOTION
Frames: 7
Frame Time: 0.033333
-183.429703 89.960052 22.660780 86.442908 -0.937839 102.616100 155.410327 -12.655197 155.885968 -28.144119 2.087753 -12.548882 73.329778 8.215237 -2.043645 21.454550 0.003093 -0.000000 168.199364 -8.952493 -176.909973 -21.783881 -1.644929 12.800556 88.308151 -8.668585 0.202364 21.454558 -0.003104 -0.000017 5.759490 0.862810 -0.934373 1.492311 1.736708 -1.858639 1.174236 1.725594 -1.868881 6.740585 11.741762 -0.715235 -23.962040 -7.837763 4.575198 -56.101763 -84.200489 -126.199479 2.126674 15.746491 -4.095844 -40.722158 -27.074641 2.271405 13.961741 -10.935675 -7.349596 -102.455918 84.237345 79.713943 6.836398 -18.562151 22.444744 -43.682588 17.183562 -1.722975 4.892446 9.228602 -9.056907 
-183.426102 89.959579 22.663170 86.443100 -0.936339 102.622001 155.410327 -12.653007 155.887101 -28.150937 2.087748 -12.546710 73.333316 8.213692 -2.043643 21.454557 0.003094 -0.000000 168.200320 -8.950110 -176.905069 -21.788963 -1.646503 12.801186 88.311614 -8.668592 0.205710 21.454558 -0.003095 -0.000015 5.759489 0.862817 -0.934375 1.492318 1.736705 -1.858633 1.174233 1.725608 -1.868884 6.736539 11.737122 -0.719544 -23.942241 -7.840530 4.569853 -56.100787 -84.200557 -126.200504 2.128369 15.748820 -4.092649 -40.723217 -27.074638 2.271414 13.961747 -10.935673 -7.348450 -102.451021 84.234285 79.719092 6.837397 -18.567029 22.441918 -43.679917 17.183562 -1.722965 4.894266 9.225306 -9.055014 
-183.375000 89.954437 22.698000 86.452450 -0.913460 102.701402 155.410327 -12.613293 155.929121 -28.234890 2.089360 -12.533605 73.376934 8.202856 -2.047934 21.454557 0.003099 -0.000000 168.219513 -8.912505 -176.850250 -21.857363 -1.664269 12.814815 88.358783 -8.668589 0.253125 21.454558 -0.003106 -0.000017 5.759497 0.862810 -0.934371 1.492304 1.736964 -1.858632 1.174232 1.725861 -1.868888 6.710393 11.679456 -0.769654 -23.718933 -7.848115 4.494508 -56.040842 -84.208064 -126.259571 2.154528 15.776228 -4.069755 -40.739476 -27.074641 2.271403 13.956422 -10.936641 -7.321107 -102.442176 84.205625 79.730396 6.862231 -18.636429 22.428649 -43.648204 17.189599 -1.722976 4.914399 9.187900 -9.038428 
-183.322906 89.956009 22.736799 86.472524 -0.894287 102.778392 155.420026 -12.554508 156.004854 -28.286776 2.077653 -12.543611 73.396059 8.203970 -2.063086 21.454551 0.003093 -0.000000 168.256888 -8.863004 -176.805799 -21.893432 -1.676981 12.828733 88.391903 -8.668581 0.297573 21.454560 -0.003099 -0.000015 5.759488 0.857554 -0.934381 1.492312 1.726445 -1.858630 1.174236 1.715339 -1.868881 6.726720 11.653851 -0.806089 -23.559163 -7.830187 4.428675 -55.917099 -84.219108 -126.382091 2.178366 15.787772 -4.082237 -40.745186 -27.064205 2.271402 13.937403 -10.946432 -7.274243 -102.584011 84.195694 79.588281 6.894266 -18.710700 22.481136 -43.621300 17.170023 -1.722962 4.929094 9.153545 -9.052182 
-183.271194 89.965874 22.778111 86.491621 -0.889070 102.858804 155.434451 -12.480505 156.075232 -28.298391 2.076615 -12.552371 73.394201 8.205876 -2.082298 21.454558 0.003101 0.000000 168.310355 -8.809597 -176.737866 -21.872236 -1.693749 12.826748 88.399771 -8.660921 0.334727 21.454558 -0.003112 -0.000020 5.755954 0.850698 -0.934377 1.485348 1.712704 -1.858635 1.167276 1.701577 -1.868883 6.775175 11.658182 -0.829434 -23.468829 -7.833823 4.393342 -55.804135 -84.225317 -126.494106 2.183830 15.789341 -4.088543 -40.723032 -27.046367 2.271399 13.945091 -10.972592 -7.255621 -102.818492 84.188973 79.353281 6.920547 -18.779911 22.545771 -43.586524 17.147514 -1.722961 4.940076 9.137033 -9.051513 
-183.218994 89.980164 22.817390 86.502577 -0.900164 102.937795 155.440694 -12.401008 156.119055 -28.284879 2.095863 -12.549681 73.388327 8.198250 -2.100501 21.454553 0.003092 0.000000 168.362401 -8.761406 -176.656518 -21.815179 -1.717910 12.814956 88.387934 -8.646910 0.370319 21.454558 -0.003112 -0.000018 5.749003 0.846039 -0.934369 1.471501 1.703263 -1.858637 1.153433 1.692143 -1.868884 6.854088 11.656981 -0.843673 -23.497044 -7.862832 4.384513 -55.769225 -84.228711 -126.528530 2.172568 15.793928 -4.071460 -40.692478 -27.041761 2.271391 13.969905 -10.999663 -7.284199 -103.005461 84.181187 79.166448 6.964357 -18.833154 22.538885 -43.551393 17.147950 -1.722979 4.942134 9.140511 -9.017521 
-183.165802 89.994133 22.850071 86.507460 -0.922655 103.000701 155.432170 -12.325000 156.131158 -28.272906 2.134977 -12.539479 73.383190 8.184104 -2.121298 21.454553 0.003094 -0.000001 168.395527 -8.721806 -176.607710 -21.763450 -1.742262 12.814180 88.370217 -8.639673 0.411188 21.454558 -0.003114 -0.000018 5.743013 0.844322 -0.930407 1.459628 1.699680 -1.850790 1.141553 1.688612 -1.861018 6.913158 11.629626 -0.847355 -23.617020 -7.902053 4.397072 -55.881230 -84.229490 -126.416843 2.167216 15.807722 -4.060737 -40.700424 -27.041535 2.271399 13.965928 -11.010421 -7.303842 -103.001718 84.168237 79.171175 7.021805 -18.870798 22.460824 -43.530879 17.171442 -1.722967 4.942896 9.143280 -8.973600 
